# xmcd
#
# Track frame offsets: 
#        182
#        20440
#        37330
#        53602
#        70962
#        88060
#        105677
#        109650
#        130350
#        149670
#        164810
#        181867
#
# Disc length: 2432 seconds
#
# Revision: 4
# Processed by: cddbd v1.5.2PL0 Copyright (c) Steve Scherf et al.
# Submitted via: ExactAudioCopyFreeDBPlugin 1.0
#
DISCID=b2097e0c
DTITLE=Kevin Welch - Western Beat
DYEAR=1992
DGENRE=Country
TTITLE0=Early Summer Rain
TTITLE1=The Other Side
TTITLE2=I Look For You
TTITLE3=Happy Ever After (Comes One Day At A Time)
TTITLE4=Something 'Bout You
TTITLE5=Sam's Town
TTITLE6=Webelo Waggle
TTITLE7=Same Old Rain
TTITLE8=Train To Birmingham
TTITLE9=The Restless Kind
TTITLE10=Me And Billy The Kid
TTITLE11=The End
EXTD=
EXTT0=
EXTT1=
EXTT2=
EXTT3=
EXTT4=
EXTT5=
EXTT6=
EXTT7=
EXTT8=
EXTT9=
EXTT10=
EXTT11=
PLAYORDER=
